<svg xmlns="http://www.w3.org/2000/svg" viewBox="0 0 171.71 31.88"><defs><style>.cls-1{fill:#00c73c;}</style></defs><g id="Layer_2" data-name="Layer 2"><g id="logo"><polygon class="cls-1" points="22.92 0 22.92 16.08 11.9 0 0 0 0 31.88 11.86 31.88 11.86 15.79 22.88 31.88 34.78 31.88 34.78 0 22.92 0"/><path class="cls-1" d="M162.11,20a8.84,8.84,0,0,0,6.94-9.1C169.05,2.64,162.53,0,154,0H139.12V31.88H151v-10l7.08,10h13.64Zm-5.82-6.49a5.54,5.54,0,0,1-3.13.84h-2.55V8h2.5a5.46,5.46,0,0,1,3.22.86,3,3,0,0,1,1,2.35A2.72,2.72,0,0,1,156.29,13.46Z"/><path class="cls-1" d="M110.2,0h24.06V8.3H122v3.75h11.34v7.84H122v3.69h12.68v8.3H110.2Z"/><path class="cls-1" d="M63.34,0H49.81L37.33,31.88H50.52l1.16-4.17h9.8l1.16,4.17H75.83ZM53.62,20.34,56.41,9.83h.33l2.79,10.51Z"/><polygon class="cls-1" points="94.72 0 88.87 19.21 88.54 19.21 82.7 0 69.76 0 83.1 31.88 94.31 31.88 107.66 0 94.72 0"/></g></g></svg>